<?xml version="1.0" encoding="UTF-8"?>
<svg width="191px" height="182px" viewBox="0 0 191 182" version="1.1" xmlns="http://www.w3.org/2000/svg" xmlns:xlink="http://www.w3.org/1999/xlink">
    <!-- Generator: Sketch 59 (86127) - https://sketch.com -->
    <title>Group 28</title>
    <desc>Created with Sketch.</desc>
    <defs>
        <path d="M25.7072481,7.53765957 C19.6436842,17.3294681 0.348360902,51.4805319 0.348360902,51.4805319 L0.348360902,51.4805319 L31.4150075,69.4243617 L50.1163308,37.0180851 C50.1163308,37.0180851 65.835,64.1170213 67.0401203,66.203617 L67.0401203,66.203617 C68.2437519,68.2902128 70.1776015,68.4778723 72.5141504,67.2834043 L72.5141504,67.2834043 C74.8484662,66.0881915 94.0410677,54.88 96.0605188,53.6885106 L96.0605188,53.6885106 C98.505,52.2468085 99.2255414,50.4044681 97.4316316,47.2328723 L97.4316316,47.2328723 C92.1548571,37.9094681 78.8047444,14.9561702 74.3705865,7.27553191 L74.3705865,7.27553191 C71.6104962,2.49244681 61.1492481,0.110212766 50.5495489,0.110212766 L50.5495489,0.110212766 C39.7324962,0.110212766 28.7710376,2.59223404 25.7072481,7.53765957" id="path-1"></path>
        <linearGradient x1="0.000389702065%" y1="49.9995082%" x2="99.9999076%" y2="49.9995082%" id="linearGradient-3">
            <stop stop-color="#00C0E1" offset="0%"></stop>
            <stop stop-color="#0091FF" offset="100%"></stop>
        </linearGradient>
        <path d="M0.864043478,3.61545455 C1.85226087,7.50747273 7.8103913,29.7831455 9.99452174,37.9361818 L9.99452174,37.9361818 C10.4919565,39.7998182 11.7218696,40.6749818 13.2910435,40.2508182 L13.2910435,40.2508182 C21.1132609,38.1389455 44.8326957,31.7325091 48.4596087,30.7529818 L48.4596087,30.7529818 C52.8101304,29.5781455 48.8291739,27.8099273 48.8291739,27.8099273 L48.8291739,27.8099273 L2.54334783,0.858018182 C2.54334783,0.858018182 1.95721739,0.461436364 1.42430435,0.461436364 L1.42430435,0.461436364 C0.779043478,0.462181818 0.212869565,1.04363636 0.864043478,3.61545455" id="path-4"></path>
        <linearGradient x1="16.7337181%" y1="50.000235%" x2="205.0986%" y2="50.000235%" id="linearGradient-6">
            <stop stop-color="#00C0E1" offset="0%"></stop>
            <stop stop-color="#0091FF" offset="100%"></stop>
        </linearGradient>
        <path d="M0.244093023,31.4336232 C8.8267907,16.3769855 20.756093,-4.62573913 24.4926512,1.33391304 L31.592186,13.786029 L11.7603721,51.6337391 L0.244093023,31.4336232 Z" id="path-7"></path>
        <linearGradient x1="60.0836616%" y1="50%" x2="38.1070263%" y2="22.7084843%" id="linearGradient-9">
            <stop stop-color="#3E60DB" stop-opacity="0" offset="0%"></stop>
            <stop stop-color="#3E60DB" offset="100%"></stop>
        </linearGradient>
        <path d="M24.1794951,3.25528696 C18.7244563,12.5253391 5.47223301,35.668313 1.02193204,43.3813913 L1.02193204,43.3813913 C0.322951456,44.5921217 0.00299029126,46.1528348 0,47.958087 L0,47.958087 L0,48.0089391 C0.0216796117,60.6801043 15.5846505,85.2738609 25.6858544,85.5894435 L25.6858544,85.5894435 C37.2448252,85.9491478 76.6247184,85.5879478 76.6247184,85.5879478 L76.6247184,85.5879478 L76.6247184,49.5502087 L39.059932,49.5502087 C39.059932,49.5502087 54.726068,22.2665217 55.9356408,20.1703652 L55.9356408,20.1703652 C57.144466,18.0757043 56.337835,16.2988696 54.1242718,14.8667826 L54.1242718,14.8667826 C51.9151942,13.4339478 32.5306311,2.36462609 30.4807864,1.20549565 L30.4807864,1.20549565 C29.5709903,0.690991304 28.731466,0.405321739 27.940534,0.405321739 L27.940534,0.405321739 C26.5747184,0.405321739 25.3561748,1.25784348 24.1794951,3.25528696" id="path-10"></path>
        <linearGradient x1="75.0191722%" y1="109.644255%" x2="23.2034239%" y2="9.6537279%" id="linearGradient-12">
            <stop stop-color="#00C0E1" offset="0%"></stop>
            <stop stop-color="#0091FF" offset="100%"></stop>
        </linearGradient>
        <path d="M0.733170732,2.66428205 L0.733902439,56.4332564 C0.733902439,56.4332564 0.632195122,57.987359 1.58560976,58 L1.58560976,58 L1.61341463,58 C2.08463415,57.9918205 2.80609756,57.6155641 3.90878049,56.5202564 L3.90878049,56.5202564 C6.72804878,53.7191538 22.7143902,37.4174359 28.5643902,31.4493846 L28.5643902,31.4493846 C29.9026829,30.0848974 30.0358537,28.5768974 28.9002439,27.421359 L28.9002439,27.421359 C23.232439,21.6600256 6.04609756,4.18938462 3.41926829,1.51989744 L3.41926829,1.51989744 C2.5697561,0.655846154 1.98292683,0.340564103 1.57902439,0.340564103 L1.57902439,0.340564103 C0.482926829,0.341307692 0.733170732,2.66428205 0.733170732,2.66428205" id="path-13"></path>
        <linearGradient x1="49.1324465%" y1="70.7223264%" x2="8.58948658%" y2="-71.3581695%" id="linearGradient-15">
            <stop stop-color="#00C0E1" offset="0%"></stop>
            <stop stop-color="#0091FF" offset="100%"></stop>
        </linearGradient>
        <path d="M39.1875,20.4442563 C21.88425,20.4442563 -2.2275,20.484 1.02525,14.2575 L8.18025,1.86525 L50.793,0.34125 L39.1875,20.4442563 Z" id="path-16"></path>
        <linearGradient x1="50%" y1="0%" x2="50%" y2="100%" id="linearGradient-18">
            <stop stop-color="#3E60DB" stop-opacity="0" offset="0%"></stop>
            <stop stop-color="#3E60DB" offset="100%"></stop>
        </linearGradient>
        <path d="M19.2003942,18.2462051 L37.7995962,50.6035128 C37.7995962,50.6035128 6.64865385,50.6726667 4.25425,50.6726667 L4.25425,50.6726667 C1.857625,50.6748974 0.735201923,52.2520513 0.602673077,54.8687436 L0.602673077,54.8687436 C0.468663462,57.4861795 0.576759615,79.6867949 0.598230769,82.0291026 L0.598230769,82.0291026 C0.622663462,84.8644103 1.85170192,86.4066154 5.47514423,86.4378462 L5.47514423,86.4378462 C16.1255769,86.5293077 42.5299135,86.4378462 51.3464135,86.436359 L51.3464135,86.436359 C61.0476731,86.4371026 76.258875,61.8919487 76.3032981,48.9534872 L76.3032981,48.9534872 L76.3032981,48.8382308 C76.2966346,47.0305641 75.989375,45.4526667 75.3245096,44.2071538 L75.3245096,44.2071538 C69.9085962,34.0705385 50.0996058,0.330153846 50.0996058,0.330153846 L50.0996058,0.330153846 L19.2003942,18.2462051 Z" id="path-19"></path>
        <linearGradient x1="76.6146412%" y1="9.68575981%" x2="26.8155251%" y2="108.180809%" id="linearGradient-21">
            <stop stop-color="#00C0E1" offset="0%"></stop>
            <stop stop-color="#0091FF" offset="100%"></stop>
        </linearGradient>
        <path d="M9.8655,2.34892727 C7.73775,10.2350909 1.2855,34.1559818 0.2985,37.8146727 L0.2985,37.8146727 C-0.885,42.2024182 2.6745,39.6097273 2.6745,39.6097273 L2.6745,39.6097273 L49.6425,12.6563273 C49.6425,12.6563273 52.785,11.1192 48.0915,9.81241818 L48.0915,9.81241818 C44.199,8.72852727 21.76725,2.79545455 13.55475,0.624690909 L13.55475,0.624690909 C13.137,0.514363636 12.744,0.460690909 12.3795,0.460690909 L12.3795,0.460690909 C11.109,0.460690909 10.19775,1.11892727 9.8655,2.34892727" id="path-22"></path>
        <linearGradient x1="57.9084222%" y1="31.3728144%" x2="-36.3485699%" y2="159.317214%" id="linearGradient-24">
            <stop stop-color="#00C0E1" offset="0%"></stop>
            <stop stop-color="#0091FF" offset="100%"></stop>
        </linearGradient>
        <path d="M22.8517925,0.0400204082 C31.3398113,15.125449 43.2039057,36.1301224 36.3148868,36.4276327 L22.2763585,36.4276327 L0.0765283019,0.0407755102 L22.8517925,0.0400204082 Z" id="path-25"></path>
        <linearGradient x1="45.6492873%" y1="50.3737313%" x2="107.86984%" y2="38.1916935%" id="linearGradient-27">
            <stop stop-color="#3E60DB" stop-opacity="0" offset="0%"></stop>
            <stop stop-color="#3E60DB" offset="100%"></stop>
        </linearGradient>
    </defs>
    <g id="web" stroke="none" stroke-width="1" fill="none" fill-rule="evenodd">
        <g id="2-Вторсырье" transform="translate(-913.000000, -255.000000)">
            <g id="Group-28" transform="translate(913.000000, 255.000000)">
                <g id="Group-3" transform="translate(45.000000, 0.000000)">
                    <mask id="mask-2" fill="white">
                        <use xlink:href="#path-1"></use>
                    </mask>
                    <g id="Clip-2"></g>
                    <path d="M25.7072481,7.53765957 C19.6436842,17.3294681 0.348360902,51.4805319 0.348360902,51.4805319 L0.348360902,51.4805319 L31.4150075,69.4243617 L50.1163308,37.0180851 C50.1163308,37.0180851 65.835,64.1170213 67.0401203,66.203617 L67.0401203,66.203617 C68.2437519,68.2902128 70.1776015,68.4778723 72.5141504,67.2834043 L72.5141504,67.2834043 C74.8484662,66.0881915 94.0410677,54.88 96.0605188,53.6885106 L96.0605188,53.6885106 C98.505,52.2468085 99.2255414,50.4044681 97.4316316,47.2328723 L97.4316316,47.2328723 C92.1548571,37.9094681 78.8047444,14.9561702 74.3705865,7.27553191 L74.3705865,7.27553191 C71.6104962,2.49244681 61.1492481,0.110212766 50.5495489,0.110212766 L50.5495489,0.110212766 C39.7324962,0.110212766 28.7710376,2.59223404 25.7072481,7.53765957" id="Fill-1" fill="url(#linearGradient-3)" mask="url(#mask-2)"></path>
                </g>
                <g id="Group-6" transform="translate(37.000000, 42.000000)">
                    <mask id="mask-5" fill="white">
                        <use xlink:href="#path-4"></use>
                    </mask>
                    <g id="Clip-5"></g>
                    <path d="M0.864043478,3.61545455 C1.85226087,7.50747273 7.8103913,29.7831455 9.99452174,37.9361818 L9.99452174,37.9361818 C10.4919565,39.7998182 11.7218696,40.6749818 13.2910435,40.2508182 L13.2910435,40.2508182 C21.1132609,38.1389455 44.8326957,31.7325091 48.4596087,30.7529818 L48.4596087,30.7529818 C52.8101304,29.5781455 48.8291739,27.8099273 48.8291739,27.8099273 L48.8291739,27.8099273 L2.54334783,0.858018182 C2.54334783,0.858018182 1.95721739,0.461436364 1.42430435,0.461436364 L1.42430435,0.461436364 C0.779043478,0.462181818 0.212869565,1.04363636 0.864043478,3.61545455" id="Fill-4" fill="url(#linearGradient-6)" mask="url(#mask-5)"></path>
                </g>
                <g id="Group-9" transform="translate(95.000000, 5.000000)">
                    <mask id="mask-8" fill="white">
                        <use xlink:href="#path-7"></use>
                    </mask>
                    <g id="Clip-8"></g>
                    <path d="M0.244093023,31.4336232 C8.8267907,16.3769855 20.756093,-4.62573913 24.4926512,1.33391304 L31.592186,13.786029 L11.7603721,51.6337391 L0.244093023,31.4336232 Z" id="Fill-7" fill="url(#linearGradient-9)" mask="url(#mask-8)"></path>
                </g>
                <g id="Group-12" transform="translate(0.000000, 85.000000)">
                    <mask id="mask-11" fill="white">
                        <use xlink:href="#path-10"></use>
                    </mask>
                    <g id="Clip-11"></g>
                    <path d="M24.1794951,3.25528696 C18.7244563,12.5253391 5.47223301,35.668313 1.02193204,43.3813913 L1.02193204,43.3813913 C0.322951456,44.5921217 0.00299029126,46.1528348 0,47.958087 L0,47.958087 L0,48.0089391 C0.0216796117,60.6801043 15.5846505,85.2738609 25.6858544,85.5894435 L25.6858544,85.5894435 C37.2448252,85.9491478 76.6247184,85.5879478 76.6247184,85.5879478 L76.6247184,85.5879478 L76.6247184,49.5502087 L39.059932,49.5502087 C39.059932,49.5502087 54.726068,22.2665217 55.9356408,20.1703652 L55.9356408,20.1703652 C57.144466,18.0757043 56.337835,16.2988696 54.1242718,14.8667826 L54.1242718,14.8667826 C51.9151942,13.4339478 32.5306311,2.36462609 30.4807864,1.20549565 L30.4807864,1.20549565 C29.5709903,0.690991304 28.731466,0.405321739 27.940534,0.405321739 L27.940534,0.405321739 C26.5747184,0.405321739 25.3561748,1.25784348 24.1794951,3.25528696" id="Fill-10" fill="url(#linearGradient-12)" mask="url(#mask-11)"></path>
                </g>
                <g id="Group-15" transform="translate(72.000000, 124.000000)">
                    <mask id="mask-14" fill="white">
                        <use xlink:href="#path-13"></use>
                    </mask>
                    <g id="Clip-14"></g>
                    <path d="M0.733170732,2.66428205 L0.733902439,56.4332564 C0.733902439,56.4332564 0.632195122,57.987359 1.58560976,58 L1.58560976,58 L1.61341463,58 C2.08463415,57.9918205 2.80609756,57.6155641 3.90878049,56.5202564 L3.90878049,56.5202564 C6.72804878,53.7191538 22.7143902,37.4174359 28.5643902,31.4493846 L28.5643902,31.4493846 C29.9026829,30.0848974 30.0358537,28.5768974 28.9002439,27.421359 L28.9002439,27.421359 C23.232439,21.6600256 6.04609756,4.18938462 3.41926829,1.51989744 L3.41926829,1.51989744 C2.5697561,0.655846154 1.98292683,0.340564103 1.57902439,0.340564103 L1.57902439,0.340564103 C0.482926829,0.341307692 0.733170732,2.66428205 0.733170732,2.66428205" id="Fill-13" fill="url(#linearGradient-15)" mask="url(#mask-14)"></path>
                </g>
                <g id="Group-18" transform="translate(0.000000, 115.000000)">
                    <mask id="mask-17" fill="white">
                        <use xlink:href="#path-16"></use>
                    </mask>
                    <g id="Clip-17"></g>
                    <path d="M39.1875,20.4442563 C21.88425,20.4442563 -2.2275,20.484 1.02525,14.2575 L8.18025,1.86525 L50.793,0.34125 L39.1875,20.4442563 Z" id="Fill-16" fill="url(#linearGradient-18)" mask="url(#mask-17)"></path>
                </g>
                <g id="Group-21" transform="translate(114.000000, 87.000000)">
                    <mask id="mask-20" fill="white">
                        <use xlink:href="#path-19"></use>
                    </mask>
                    <g id="Clip-20"></g>
                    <path d="M19.2003942,18.2462051 L37.7995962,50.6035128 C37.7995962,50.6035128 6.64865385,50.6726667 4.25425,50.6726667 L4.25425,50.6726667 C1.857625,50.6748974 0.735201923,52.2520513 0.602673077,54.8687436 L0.602673077,54.8687436 C0.468663462,57.4861795 0.576759615,79.6867949 0.598230769,82.0291026 L0.598230769,82.0291026 C0.622663462,84.8644103 1.85170192,86.4066154 5.47514423,86.4378462 L5.47514423,86.4378462 C16.1255769,86.5293077 42.5299135,86.4378462 51.3464135,86.436359 L51.3464135,86.436359 C61.0476731,86.4371026 76.258875,61.8919487 76.3032981,48.9534872 L76.3032981,48.9534872 L76.3032981,48.8382308 C76.2966346,47.0305641 75.989375,45.4526667 75.3245096,44.2071538 L75.3245096,44.2071538 C69.9085962,34.0705385 50.0996058,0.330153846 50.0996058,0.330153846 L50.0996058,0.330153846 L19.2003942,18.2462051 Z" id="Fill-19" fill="url(#linearGradient-21)" mask="url(#mask-20)"></path>
                </g>
                <g id="Group-24" transform="translate(125.000000, 74.000000)">
                    <mask id="mask-23" fill="white">
                        <use xlink:href="#path-22"></use>
                    </mask>
                    <g id="Clip-23"></g>
                    <path d="M9.8655,2.34892727 C7.73775,10.2350909 1.2855,34.1559818 0.2985,37.8146727 L0.2985,37.8146727 C-0.885,42.2024182 2.6745,39.6097273 2.6745,39.6097273 L2.6745,39.6097273 L49.6425,12.6563273 C49.6425,12.6563273 52.785,11.1192 48.0915,9.81241818 L48.0915,9.81241818 C44.199,8.72852727 21.76725,2.79545455 13.55475,0.624690909 L13.55475,0.624690909 C13.137,0.514363636 12.744,0.460690909 12.3795,0.460690909 L12.3795,0.460690909 C11.109,0.460690909 10.19775,1.11892727 9.8655,2.34892727" id="Fill-22" fill="url(#linearGradient-24)" mask="url(#mask-23)"></path>
                </g>
                <g id="Group-27" transform="translate(129.000000, 138.000000)">
                    <mask id="mask-26" fill="white">
                        <use xlink:href="#path-25"></use>
                    </mask>
                    <g id="Clip-26"></g>
                    <path d="M22.8517925,0.0400204082 C31.3398113,15.125449 43.2039057,36.1301224 36.3148868,36.4276327 L22.2763585,36.4276327 L0.0765283019,0.0407755102 L22.8517925,0.0400204082 Z" id="Fill-25" fill="url(#linearGradient-27)" mask="url(#mask-26)"></path>
                </g>
            </g>
        </g>
    </g>
</svg>