<?xml version="1.0" encoding="UTF-8"?>
<svg width="162px" height="230px" viewBox="0 0 162 230" version="1.1" xmlns="http://www.w3.org/2000/svg" xmlns:xlink="http://www.w3.org/1999/xlink">
    <!-- Generator: Sketch 59 (86127) - https://sketch.com -->
    <title>Group 52</title>
    <desc>Created with Sketch.</desc>
    <defs>
        <polygon id="path-1" points="0.000186206897 0 162 0 162 210.705869 0.000186206897 210.705869"></polygon>
        <polygon id="path-3" points="6.20689655e-05 -5.68434189e-14 162 -5.68434189e-14 162 206.826798 6.20689655e-05 206.826798"></polygon>
    </defs>
    <g id="web" stroke="none" stroke-width="1" fill="none" fill-rule="evenodd">
        <g id="2-Вторсырье" transform="translate(-1098.000000, -1806.000000)">
            <g id="Group-11" transform="translate(155.000000, 1696.000000)">
                <g id="Group-52" transform="translate(943.000000, 110.000000)">
                    <g id="Group-18">
                        <path d="M83.6939172,2.4288139 L78.3057103,2.4288139 C72.6518483,2.4288139 68.0692966,6.95163987 68.0692966,12.5310578 C68.0692966,18.1104757 72.6518483,22.6333016 78.3057103,22.6333016 L83.6939172,22.6333016 C89.3477793,22.6333016 93.9309517,18.1104757 93.9309517,12.5310578 C93.9309517,6.95163987 89.3477793,2.4288139 83.6939172,2.4288139 M82.2576414,17.2456016 L79.7426069,17.2456016 C77.1040552,17.2456016 74.9651586,15.1348678 74.9651586,12.5310578 C74.9651586,9.92724774 77.1040552,7.81651396 79.7426069,7.81651396 L82.2576414,7.81651396 C84.8955724,7.81651396 87.034469,9.92724774 87.034469,12.5310578 C87.034469,15.1348678 84.8955724,17.2456016 82.2576414,17.2456016" id="Fill-1" fill="#E4863D"></path>
                        <g id="Group-5" transform="translate(0.000000, 18.988029)">
                            <mask id="mask-2" fill="white">
                                <use xlink:href="#path-1"></use>
                            </mask>
                            <g id="Clip-4"></g>
                            <path d="M155.689634,210.705869 L6.31011724,210.705869 C2.82494483,210.705869 0.000186206897,207.917691 0.000186206897,204.478408 L0.000186206897,6.22746095 C0.000186206897,2.78817766 2.82494483,0 6.31011724,0 L155.689634,0 C159.174807,0 162.000186,2.78817766 162.000186,6.22746095 L162.000186,204.478408 C162.000186,207.917691 159.174807,210.705869 155.689634,210.705869" id="Fill-3" fill="#C35115" mask="url(#mask-2)"></path>
                        </g>
                        <g id="Group-8" transform="translate(0.000000, 18.988029)">
                            <mask id="mask-4" fill="white">
                                <use xlink:href="#path-3"></use>
                            </mask>
                            <g id="Clip-7"></g>
                            <path d="M155.747855,206.826798 L6.25226897,206.826798 C2.79937241,206.826798 6.20689655e-05,204.064346 6.20689655e-05,200.656914 L6.20689655e-05,6.16988434 C6.20689655e-05,2.76245194 2.79937241,-5.68434189e-14 6.25226897,-5.68434189e-14 L155.747855,-5.68434189e-14 C159.200752,-5.68434189e-14 162.000062,2.76245194 162.000062,6.16988434 L162.000062,200.656914 C162.000062,204.064346 159.200752,206.826798 155.747855,206.826798" id="Fill-6" fill="#F16922" mask="url(#mask-4)"></path>
                        </g>
                        <polygon id="Fill-9" fill="#F3EEDD" points="14.8965517 213.207388 147.103448 213.207388 147.103448 32.2379979 14.8965517 32.2379979"></polygon>
                        <path d="M147.103634,213.207388 L14.8967379,213.207388 L14.8967379,216.524781 L145.189428,216.524781 C146.246462,216.524781 147.103634,215.678895 147.103634,214.636391 L147.103634,213.207388 Z" id="Fill-11" fill="#C35115"></path>
                        <polygon id="Fill-12" fill="#FFFFFF" points="14.8965517 211.522354 147.103448 211.522354 147.103448 32.2379979 14.8965517 32.2379979"></polygon>
                        <path d="M82.5082759,18.1882653 L79.4917241,18.1882653 C76.3255862,18.1882653 73.7584138,15.6555073 73.7584138,12.5310578 C73.7584138,9.40660824 76.3255862,6.8738502 79.4917241,6.8738502 L82.5082759,6.8738502 C85.6750345,6.8738502 88.2409655,9.40660824 88.2409655,12.5310578 C88.2409655,15.6555073 85.6750345,18.1882653 82.5082759,18.1882653 M84.2325517,0.408120117 L77.7674483,0.408120117 C70.9826897,0.408120117 65.4827586,5.83563378 65.4827586,12.5310578 C65.4827586,19.2264817 70.9826897,24.6539954 77.7674483,24.6539954 L84.2325517,24.6539954 C91.0173103,24.6539954 96.5172414,19.2264817 96.5172414,12.5310578 C96.5172414,5.83563378 91.0173103,0.408120117 84.2325517,0.408120117" id="Fill-13" fill="#F6A737"></path>
                        <polygon id="Fill-14" fill="#DDD9D1" points="32.4310345 39.5073504 129.568966 39.5073504 129.568966 32.2337103 32.4310345 32.2337103"></polygon>
                        <path d="M129.569152,32.080581 L32.4312207,32.080581 L32.4312207,24.9600702 C32.4312207,23.5224926 33.6117724,22.3568727 35.0691517,22.3568727 L126.931221,22.3568727 C128.387979,22.3568727 129.569152,23.5224926 129.569152,24.9600702 L129.569152,32.080581 Z" id="Fill-15" fill="#C35115"></path>
                        <path d="M125.845014,36.1385065 L36.1553586,36.1385065 L36.1553586,19.1411581 C36.1553586,15.8427538 38.864669,13.1691168 42.2070828,13.1691168 L119.79329,13.1691168 C123.135703,13.1691168 125.845014,15.8427538 125.845014,19.1411581 L125.845014,36.1385065 Z" id="Fill-16" fill="#FFCB5A"></path>
                        <polygon id="Fill-17" fill="#F6A737" points="36.1551724 36.1385065 125.844828 36.1385065 125.844828 29.0945603 36.1551724 29.0945603"></polygon>
                    </g>
                    <g id="Group-51" transform="translate(22.000000, 53.000000)">
                        <line x1="0.373190526" y1="9.09775796" x2="117.752138" y2="9.09775796" id="Stroke-19" stroke="#4F577F"></line>
                        <line x1="0.373190526" y1="150.564564" x2="39.9640537" y2="150.564564" id="Stroke-21" stroke="#4F577F"></line>
                        <path d="M22.5858211,38.3617781 L3.00278947,38.3617781 C1.89358947,38.3617781 0.994305263,37.4785845 0.994305263,36.3892312 L0.994305263,19.6225826 C0.994305263,18.5332292 1.89358947,17.6500357 3.00278947,17.6500357 L22.5858211,17.6500357 C23.6950211,17.6500357 24.5943053,18.5332292 24.5943053,19.6225826 L24.5943053,36.3892312 C24.5943053,37.4785845 23.6950211,38.3617781 22.5858211,38.3617781" id="Fill-23" fill="#D4D6D9"></path>
                        <path d="M81.78934,19.9751281 L28.6762979,19.9751281 C28.0223295,19.9751281 27.4925716,19.4542391 27.4925716,18.8125819 C27.4925716,18.1703148 28.0223295,17.6500357 28.6762979,17.6500357 L81.78934,17.6500357 C82.4433084,17.6500357 82.9730663,18.1703148 82.9730663,18.8125819 C82.9730663,19.4542391 82.4433084,19.9751281 81.78934,19.9751281" id="Fill-25" fill="#D4D6D9"></path>
                        <path d="M116.568287,26.4810562 L28.6762979,26.4810562 C28.0223295,26.4810562 27.4925716,25.9601672 27.4925716,25.31851 C27.4925716,24.6768528 28.0223295,24.1559638 28.6762979,24.1559638 L116.568287,24.1559638 C117.222256,24.1559638 117.752014,24.6768528 117.752014,25.31851 C117.752014,25.9601672 117.222256,26.4810562 116.568287,26.4810562" id="Fill-27" fill="#ACAAB1"></path>
                        <polygon id="Fill-27" fill="#626264" points="-1.29318778e-12 5.42783255 -1.29318778e-12 -4.97379915e-14 87.8919895 -4.97379915e-14 87.8919895 5.42783255"></polygon>
                        <path d="M116.568287,31.5130635 L28.6762979,31.5130635 C28.0223295,31.5130635 27.4925716,30.9921745 27.4925716,30.3505174 C27.4925716,29.7088602 28.0223295,29.1879712 28.6762979,29.1879712 L116.568287,29.1879712 C117.222256,29.1879712 117.752014,29.7088602 117.752014,30.3505174 C117.752014,30.9921745 117.222256,31.5130635 116.568287,31.5130635" id="Fill-29" fill="#ACAAB1"></path>
                        <path d="M55.0843253,36.5450709 L28.6765463,36.5450709 C28.0225779,36.5450709 27.4921989,36.0241819 27.4921989,35.3825247 C27.4921989,34.7408675 28.0225779,34.2199785 28.6765463,34.2199785 L55.0843253,34.2199785 C55.7376726,34.2199785 56.2680516,34.7408675 56.2680516,35.3825247 C56.2680516,36.0241819 55.7376726,36.5450709 55.0843253,36.5450709" id="Fill-31" fill="#ACAAB1"></path>
                        <path d="M22.5858211,71.5594861 L3.00278947,71.5594861 C1.89358947,71.5594861 0.994305263,70.6762925 0.994305263,69.5869392 L0.994305263,52.8196807 C0.994305263,51.7303273 1.89358947,50.8471338 3.00278947,50.8471338 L22.5858211,50.8471338 C23.6950211,50.8471338 24.5943053,51.7303273 24.5943053,52.8196807 L24.5943053,69.5869392 C24.5943053,70.6762925 23.6950211,71.5594861 22.5858211,71.5594861" id="Fill-33" fill="#D4D6D9"></path>
                        <path d="M81.78934,53.1724701 L28.6762979,53.1724701 C28.0223295,53.1724701 27.4925716,52.6515811 27.4925716,52.0099239 C27.4925716,51.3676568 28.0223295,50.8473777 28.6762979,50.8473777 L81.78934,50.8473777 C82.4433084,50.8473777 82.9730663,51.3676568 82.9730663,52.0099239 C82.9730663,52.6515811 82.4433084,53.1724701 81.78934,53.1724701" id="Fill-35" fill="#D4D6D9"></path>
                        <path d="M116.568287,59.6783982 L28.6762979,59.6783982 C28.0223295,59.6783982 27.4925716,59.1575092 27.4925716,58.515852 C27.4925716,57.8741948 28.0223295,57.3533058 28.6762979,57.3533058 L116.568287,57.3533058 C117.222256,57.3533058 117.752014,57.8741948 117.752014,58.515852 C117.752014,59.1575092 117.222256,59.6783982 116.568287,59.6783982" id="Fill-37" fill="#ACAAB1"></path>
                        <path d="M116.568287,64.7104056 L28.6762979,64.7104056 C28.0223295,64.7104056 27.4925716,64.1895166 27.4925716,63.5478594 C27.4925716,62.9062022 28.0223295,62.3853132 28.6762979,62.3853132 L116.568287,62.3853132 C117.222256,62.3853132 117.752014,62.9062022 117.752014,63.5478594 C117.752014,64.1895166 117.222256,64.7104056 116.568287,64.7104056" id="Fill-39" fill="#ACAAB1"></path>
                        <path d="M55.0843253,69.742413 L28.6765463,69.742413 C28.0225779,69.742413 27.4921989,69.221524 27.4921989,68.5798668 C27.4921989,67.9382096 28.0225779,67.4173206 28.6765463,67.4173206 L55.0843253,67.4173206 C55.7376726,67.4173206 56.2680516,67.9382096 56.2680516,68.5798668 C56.2680516,69.221524 55.7376726,69.742413 55.0843253,69.742413" id="Fill-41" fill="#ACAAB1"></path>
                        <path d="M116.568287,83.5104731 L2.17784526,83.5104731 C1.52449789,83.5104731 0.994118947,82.9895841 0.994118947,82.3479269 C0.994118947,81.7056598 1.52449789,81.1847708 2.17784526,81.1847708 L116.568287,81.1847708 C117.222256,81.1847708 117.752014,81.7056598 117.752014,82.3479269 C117.752014,82.9895841 117.222256,83.5104731 116.568287,83.5104731" id="Fill-43" fill="#ACAAB1"></path>
                        <path d="M69.1353926,89.9148461 L2.17784526,89.9148461 C1.52449789,89.9148461 0.994118947,89.3939571 0.994118947,88.7522999 C0.994118947,88.1100328 1.52449789,87.5891438 2.17784526,87.5891438 L69.1353926,87.5891438 C69.7893611,87.5891438 70.3191189,88.1100328 70.3191189,88.7522999 C70.3191189,89.3939571 69.7893611,89.9148461 69.1353926,89.9148461" id="Fill-45" fill="#D4D6D9"></path>
                        <path d="M22.5919074,116.591378 C21.5895284,116.591378 20.5411916,117.214127 19.8741811,118.220528 C19.2053074,119.230589 18.9432232,120.479747 18.7593916,121.678889 C18.0650547,126.202817 18.2414337,130.87191 18.7109495,135.377538 C20.8802863,131.850254 22.7974758,128.172314 24.4476126,124.368116 C25.0879179,122.893281 25.6990337,121.323294 25.5437705,119.759407 C25.3996863,118.30714 24.3302337,116.729224 22.7912653,116.599917 C22.7248126,116.594427 22.65836,116.591378 22.5919074,116.591378 M21.9950758,147.10425 C21.8137284,147.10425 21.6298968,147.082902 21.4442021,147.037767 C19.6133389,146.586411 19.2531284,144.128962 19.1345074,143.321401 C18.8450968,141.348854 18.5445074,139.299454 18.29236,137.20431 C16.2372968,140.399177 13.9729389,143.467176 11.5104653,146.387571 C11.40116,146.517488 11.2061495,146.535786 11.0732442,146.427827 C10.94096,146.320477 10.9229495,146.128346 11.0322547,145.999039 C13.6425389,142.901762 16.0298653,139.637971 18.1793284,136.231455 C17.6421179,131.445253 17.3999074,126.443133 18.1451705,121.588008 C18.33956,120.320552 18.6202758,118.995152 19.3537389,117.888111 C20.1884337,116.628584 21.5590968,115.878357 22.8440547,115.992416 C24.7755284,116.15405 25.9946547,118.023517 26.1617179,119.700243 C26.3312653,121.406856 25.6903389,123.059794 25.0189811,124.607823 C23.2508442,128.683444 21.1783916,132.615119 18.8202547,136.373571 C19.0879284,138.72733 19.4257811,141.029245 19.7493495,143.234789 C20.0313074,145.159151 20.6355916,146.209468 21.5951179,146.445515 C22.5894232,146.694371 23.6042232,145.938654 24.3768126,145.256741 C27.10696,142.846257 29.5315495,140.108845 31.5835074,137.120748 C31.6648653,137.001809 31.8201284,136.955454 31.9555179,137.007909 C32.0915284,137.061584 32.1710232,137.20004 32.1468021,137.341546 L31.1760968,143.042658 C31.1394547,143.255527 30.9866758,144.322923 31.5344442,144.484557 C31.8139179,144.566289 32.1567389,144.357689 32.4250337,144.167388 C32.9355389,143.801424 33.4156126,143.402523 33.8627705,142.971295 C33.93916,142.171053 34.7434232,141.424486 35.6160021,140.927995 C35.7402126,140.857242 35.8992021,140.87981 35.9979495,140.9835 C36.0973179,141.087799 36.1097389,141.244554 36.0290021,141.362273 C35.5725284,142.027717 35.0589179,142.646807 34.4925179,143.215271 C34.5043179,143.286024 34.5266758,143.355557 34.5614547,143.423261 C34.81236,143.916093 35.5066968,143.988065 36.2426442,144.064308 C37.0798232,144.15092 38.0287916,144.24912 38.4101179,145.06705 C38.4809179,145.220145 38.4132232,145.400687 38.2567179,145.47083 C38.0995916,145.540973 37.9163811,145.47327 37.8455811,145.320785 C37.6114442,144.818804 36.9146232,144.746831 36.1774337,144.670589 C35.3483284,144.585197 34.4086758,144.487607 34.0056126,143.695904 C34.0037495,143.692854 34.0025074,143.689195 34.0006442,143.684925 C33.6180758,144.031371 33.2143916,144.357079 32.7902126,144.66083 C32.4057811,144.935303 31.8952758,145.229904 31.35496,145.06827 C30.6568968,144.86211 30.3681074,144.086876 30.5631179,142.942018 L31.3071389,138.577285 C29.4036126,141.175021 27.2162653,143.569646 24.7916758,145.710537 C24.0333705,146.379641 23.05956,147.10425 21.9950758,147.10425" id="Fill-47" fill="#4F577F"></path>
                        <path d="M114.514653,110.189993 L90.4246421,110.189993 C88.6372526,110.189993 87.1877158,108.766393 87.1877158,107.010374 C87.1877158,105.254356 88.6372526,103.831366 90.4246421,103.831366 L114.514653,103.831366 C116.302663,103.831366 117.7522,105.254356 117.7522,107.010374 C117.7522,108.766393 116.302663,110.189993 114.514653,110.189993" id="Fill-49" fill="#D4D6D9"></path>
                    </g>
                </g>
            </g>
        </g>
    </g>
</svg>