<svg xmlns="http://www.w3.org/2000/svg" xmlns:xlink="http://www.w3.org/1999/xlink" viewBox="0 0 191 182">
  <defs>
    <linearGradient id="b" x1="0%" x2="100%" y1="50%" y2="50%">
      <stop offset="0%" stop-color="#00C0E1"/>
      <stop offset="100%" stop-color="#0091FF"/>
    </linearGradient>
    <linearGradient id="e" x1="16.734%" x2="205.099%" y1="50%" y2="50%">
      <stop offset="0%" stop-color="#00C0E1"/>
      <stop offset="100%" stop-color="#0091FF"/>
    </linearGradient>
    <linearGradient id="h" x1="60.084%" x2="38.107%" y1="50%" y2="22.708%">
      <stop offset="0%" stop-color="#3E60DB" stop-opacity="0"/>
      <stop offset="100%" stop-color="#3E60DB"/>
    </linearGradient>
    <linearGradient id="k" x1="75.019%" x2="23.203%" y1="109.644%" y2="9.654%">
      <stop offset="0%" stop-color="#00C0E1"/>
      <stop offset="100%" stop-color="#0091FF"/>
    </linearGradient>
    <linearGradient id="n" x1="49.132%" x2="8.589%" y1="70.722%" y2="-71.358%">
      <stop offset="0%" stop-color="#00C0E1"/>
      <stop offset="100%" stop-color="#0091FF"/>
    </linearGradient>
    <linearGradient id="q" x1="50%" x2="50%" y1="0%" y2="100%">
      <stop offset="0%" stop-color="#3E60DB" stop-opacity="0"/>
      <stop offset="100%" stop-color="#3E60DB"/>
    </linearGradient>
    <linearGradient id="t" x1="76.615%" x2="26.816%" y1="9.686%" y2="108.181%">
      <stop offset="0%" stop-color="#00C0E1"/>
      <stop offset="100%" stop-color="#0091FF"/>
    </linearGradient>
    <linearGradient id="w" x1="57.908%" x2="-36.349%" y1="31.373%" y2="159.317%">
      <stop offset="0%" stop-color="#00C0E1"/>
      <stop offset="100%" stop-color="#0091FF"/>
    </linearGradient>
    <linearGradient id="z" x1="45.649%" x2="107.87%" y1="50.374%" y2="38.192%">
      <stop offset="0%" stop-color="#3E60DB" stop-opacity="0"/>
      <stop offset="100%" stop-color="#3E60DB"/>
    </linearGradient>
    <path id="a" d="M25.707 7.538C19.644 17.329.348 51.48.348 51.48l31.067 17.943 18.701-32.406S65.835 64.117 67.04 66.204c1.204 2.086 3.138 2.274 5.474 1.08 2.334-1.196 21.527-12.404 23.547-13.595 2.444-1.442 3.165-3.285 1.37-6.456-5.276-9.324-18.626-32.277-23.06-39.957C71.61 2.492 61.149.11 50.55.11 39.732.11 28.77 2.592 25.707 7.538"/>
    <path id="d" d="M.864 3.615c.988 3.892 6.946 26.168 9.13 34.321.498 1.864 1.728 2.739 3.297 2.315l35.169-9.498c4.35-1.175.37-2.943.37-2.943L2.542.858S1.957.461 1.424.461C.78.462.213 1.044.864 3.615"/>
    <path id="g" d="M.244 31.434c8.583-15.057 20.512-36.06 24.249-30.1l7.1 12.452L11.76 51.634.244 31.434z"/>
    <path id="j" d="M24.18 3.255c-5.456 9.27-18.708 32.413-23.158 40.126C.323 44.592.003 46.153 0 47.958v.05C.022 60.68 15.585 85.275 25.686 85.59c11.559.36 50.939-.001 50.939-.001V49.55H39.06s15.666-27.283 16.876-29.38c1.208-2.094.402-3.871-1.812-5.303-2.209-1.433-21.593-12.502-23.643-13.662-.91-.514-1.75-.8-2.54-.8-1.366 0-2.585.853-3.762 2.85"/>
    <path id="m" d="M.733 2.664v53.77s-.1 1.553.853 1.566h.027c.472-.008 1.193-.384 2.296-1.48 2.819-2.8 18.805-19.103 24.655-25.07 1.339-1.365 1.472-2.873.336-4.029L3.42 1.52C2.57.656 1.982.34 1.578.34.483.342.733 2.665.733 2.665"/>
    <path id="p" d="M39.188 20.444c-17.304 0-41.416.04-38.163-6.186L8.18 1.864 50.793.341 39.188 20.444z"/>
    <path id="s" d="M19.2 18.246l18.6 32.358s-31.151.069-33.546.069c-2.396.002-3.519 1.58-3.651 4.196-.134 2.617-.026 24.818-.005 27.16.025 2.835 1.254 4.378 4.877 4.409 10.65.091 37.055 0 45.871-.002 9.702.001 24.913-24.544 24.957-37.483v-.115c-.006-1.807-.314-3.385-.978-4.63C69.909 34.07 50.1.33 50.1.33L19.2 18.246z"/>
    <path id="v" d="M9.866 2.349L.299 37.815c-1.184 4.387 2.376 1.795 2.376 1.795l46.967-26.954s3.143-1.537-1.55-2.844C44.199 8.73 21.767 2.795 13.555.625A4.616 4.616 0 0012.38.46c-1.271 0-2.182.658-2.514 1.888"/>
    <path id="y" d="M22.852.04c8.488 15.085 20.352 36.09 13.463 36.388H22.276L.076.04 22.853.04z"/>
  </defs>
  <g fill="none" fill-rule="evenodd">
    <g transform="translate(45)">
      <mask id="c" fill="#fff">
        <use xlink:href="#a"/>
      </mask>
      <path fill="url(#b)" d="M25.707 7.538C19.644 17.329.348 51.48.348 51.48l31.067 17.943 18.701-32.406S65.835 64.117 67.04 66.204c1.204 2.086 3.138 2.274 5.474 1.08 2.334-1.196 21.527-12.404 23.547-13.595 2.444-1.442 3.165-3.285 1.37-6.456-5.276-9.324-18.626-32.277-23.06-39.957C71.61 2.492 61.149.11 50.55.11 39.732.11 28.77 2.592 25.707 7.538" mask="url(#c)"/>
    </g>
    <g transform="translate(37 42)">
      <mask id="f" fill="#fff">
        <use xlink:href="#d"/>
      </mask>
      <path fill="url(#e)" d="M.864 3.615c.988 3.892 6.946 26.168 9.13 34.321.498 1.864 1.728 2.739 3.297 2.315l35.169-9.498c4.35-1.175.37-2.943.37-2.943L2.542.858S1.957.461 1.424.461C.78.462.213 1.044.864 3.615" mask="url(#f)"/>
    </g>
    <g transform="translate(95 5)">
      <mask id="i" fill="#fff">
        <use xlink:href="#g"/>
      </mask>
      <path fill="url(#h)" d="M.244 31.434c8.583-15.057 20.512-36.06 24.249-30.1l7.1 12.452L11.76 51.634.244 31.434z" mask="url(#i)"/>
    </g>
    <g transform="translate(0 85)">
      <mask id="l" fill="#fff">
        <use xlink:href="#j"/>
      </mask>
      <path fill="url(#k)" d="M24.18 3.255c-5.456 9.27-18.708 32.413-23.158 40.126C.323 44.592.003 46.153 0 47.958v.05C.022 60.68 15.585 85.275 25.686 85.59c11.559.36 50.939-.001 50.939-.001V49.55H39.06s15.666-27.283 16.876-29.38c1.208-2.094.402-3.871-1.812-5.303-2.209-1.433-21.593-12.502-23.643-13.662-.91-.514-1.75-.8-2.54-.8-1.366 0-2.585.853-3.762 2.85" mask="url(#l)"/>
    </g>
    <g transform="translate(72 124)">
      <mask id="o" fill="#fff">
        <use xlink:href="#m"/>
      </mask>
      <path fill="url(#n)" d="M.733 2.664v53.77s-.1 1.553.853 1.566h.027c.472-.008 1.193-.384 2.296-1.48 2.819-2.8 18.805-19.103 24.655-25.07 1.339-1.365 1.472-2.873.336-4.029L3.42 1.52C2.57.656 1.982.34 1.578.34.483.342.733 2.665.733 2.665" mask="url(#o)"/>
    </g>
    <g transform="translate(0 115)">
      <mask id="r" fill="#fff">
        <use xlink:href="#p"/>
      </mask>
      <path fill="url(#q)" d="M39.188 20.444c-17.304 0-41.416.04-38.163-6.186L8.18 1.864 50.793.341 39.188 20.444z" mask="url(#r)"/>
    </g>
    <g transform="translate(114 87)">
      <mask id="u" fill="#fff">
        <use xlink:href="#s"/>
      </mask>
      <path fill="url(#t)" d="M19.2 18.246l18.6 32.358s-31.151.069-33.546.069c-2.396.002-3.519 1.58-3.651 4.196-.134 2.617-.026 24.818-.005 27.16.025 2.835 1.254 4.378 4.877 4.409 10.65.091 37.055 0 45.871-.002 9.702.001 24.913-24.544 24.957-37.483v-.115c-.006-1.807-.314-3.385-.978-4.63C69.909 34.07 50.1.33 50.1.33L19.2 18.246z" mask="url(#u)"/>
    </g>
    <g transform="translate(125 74)">
      <mask id="x" fill="#fff">
        <use xlink:href="#v"/>
      </mask>
      <path fill="url(#w)" d="M9.866 2.349L.299 37.815c-1.184 4.387 2.376 1.795 2.376 1.795l46.967-26.954s3.143-1.537-1.55-2.844C44.199 8.73 21.767 2.795 13.555.625A4.616 4.616 0 0012.38.46c-1.271 0-2.182.658-2.514 1.888" mask="url(#x)"/>
    </g>
    <g transform="translate(129 138)">
      <mask id="A" fill="#fff">
        <use xlink:href="#y"/>
      </mask>
      <path fill="url(#z)" d="M22.852.04c8.488 15.085 20.352 36.09 13.463 36.388H22.276L.076.04 22.853.04z" mask="url(#A)"/>
    </g>
  </g>
</svg>
