<svg xmlns="http://www.w3.org/2000/svg" xmlns:xlink="http://www.w3.org/1999/xlink" viewBox="0 0 162 230">
  <defs>
    <path id="a" d="M0 0h162v210.706H0z"/>
    <path id="c" d="M0 0h162v206.827H0z"/>
  </defs>
  <g fill="none" fill-rule="evenodd">
    <path fill="#E4863D" d="M83.694 2.429h-5.388c-5.654 0-10.237 4.523-10.237 10.102 0 5.58 4.583 10.102 10.237 10.102h5.388c5.654 0 10.237-4.523 10.237-10.102 0-5.58-4.583-10.102-10.237-10.102m-1.436 14.817h-2.515c-2.639 0-4.778-2.111-4.778-4.715 0-2.604 2.14-4.714 4.778-4.714h2.515c2.638 0 4.776 2.11 4.776 4.714 0 2.604-2.138 4.715-4.776 4.715"/>
    <g transform="translate(0 18.988)">
      <mask id="b" fill="#fff">
        <use xlink:href="#a"/>
      </mask>
      <path fill="#C35115" d="M155.69 210.706H6.31c-3.485 0-6.31-2.788-6.31-6.228V6.228C0 2.787 2.825 0 6.31 0h149.38c3.485 0 6.31 2.788 6.31 6.227v198.251c0 3.44-2.825 6.228-6.31 6.228" mask="url(#b)"/>
    </g>
    <g transform="translate(0 18.988)">
      <mask id="d" fill="#fff">
        <use xlink:href="#c"/>
      </mask>
      <path fill="#F16922" d="M155.748 206.827H6.252c-3.453 0-6.252-2.763-6.252-6.17V6.17C0 2.762 2.8 0 6.252 0h149.496C159.2 0 162 2.762 162 6.17v194.487c0 3.407-2.8 6.17-6.252 6.17" mask="url(#d)"/>
    </g>
    <path fill="#F3EEDD" d="M14.897 213.207h132.206V32.238H14.897z"/>
    <path fill="#C35115" d="M147.104 213.207H14.897v3.318h130.292c1.057 0 1.915-.846 1.915-1.889v-1.429z"/>
    <path fill="#FFF" d="M14.897 211.522h132.206V32.238H14.897z"/>
    <path fill="#F6A737" d="M82.508 18.188h-3.016c-3.166 0-5.734-2.532-5.734-5.657 0-3.124 2.568-5.657 5.734-5.657h3.016c3.167 0 5.733 2.533 5.733 5.657 0 3.125-2.566 5.657-5.733 5.657M84.233.408h-6.466c-6.784 0-12.284 5.428-12.284 12.123 0 6.695 5.5 12.123 12.284 12.123h6.466c6.784 0 12.284-5.428 12.284-12.123 0-6.695-5.5-12.123-12.284-12.123"/>
    <path fill="#DDD9D1" d="M32.431 39.507h97.138v-7.273H32.431z"/>
    <path fill="#C35115" d="M129.57 32.08H32.43v-7.12c0-1.438 1.18-2.603 2.638-2.603h91.862c1.457 0 2.638 1.165 2.638 2.603v7.12z"/>
    <path fill="#FFCB5A" d="M125.845 36.139h-89.69V19.14c0-3.298 2.71-5.972 6.052-5.972h77.586c3.343 0 6.052 2.674 6.052 5.972V36.14z"/>
    <path fill="#F6A737" d="M36.155 36.139h89.69v-7.044h-89.69z"/>
    <g>
      <path stroke="#4F577F" d="M22.373 62.098h117.379M22.373 203.565h39.591"/>
      <path fill="#D4D6D9" d="M44.586 91.362H25.003c-1.11 0-2.009-.883-2.009-1.973V72.623c0-1.09.9-1.973 2.009-1.973h19.583c1.109 0 2.008.883 2.008 1.973v16.766c0 1.09-.899 1.973-2.008 1.973M103.79 72.975H50.675c-.654 0-1.183-.52-1.183-1.162 0-.643.53-1.163 1.183-1.163h53.113c.654 0 1.184.52 1.184 1.163 0 .641-.53 1.162-1.184 1.162"/>
      <path fill="#ACAAB1" d="M138.568 79.481H50.676c-.654 0-1.183-.52-1.183-1.162 0-.642.53-1.163 1.183-1.163h87.892c.654 0 1.184.52 1.184 1.163 0 .641-.53 1.162-1.184 1.162"/>
      <path fill="#626264" d="M22 58.428V53h87.892v5.428z"/>
      <path fill="#ACAAB1" d="M138.568 84.513H50.676c-.654 0-1.183-.52-1.183-1.162 0-.642.53-1.163 1.183-1.163h87.892c.654 0 1.184.52 1.184 1.163 0 .641-.53 1.162-1.184 1.162M77.084 89.545H50.677c-.654 0-1.185-.52-1.185-1.162 0-.642.53-1.163 1.185-1.163h26.407c.654 0 1.184.52 1.184 1.163 0 .641-.53 1.162-1.184 1.162"/>
      <path fill="#D4D6D9" d="M44.586 124.56H25.003c-1.11 0-2.009-.884-2.009-1.973V105.82c0-1.09.9-1.973 2.009-1.973h19.583c1.109 0 2.008.883 2.008 1.973v16.767c0 1.09-.899 1.972-2.008 1.972M103.79 106.172H50.675c-.654 0-1.183-.52-1.183-1.162 0-.642.53-1.163 1.183-1.163h53.113c.654 0 1.184.52 1.184 1.163 0 .642-.53 1.162-1.184 1.162"/>
      <path fill="#ACAAB1" d="M138.568 112.678H50.676c-.654 0-1.183-.52-1.183-1.162 0-.642.53-1.163 1.183-1.163h87.892c.654 0 1.184.521 1.184 1.163s-.53 1.162-1.184 1.162M138.568 117.71H50.676c-.654 0-1.183-.52-1.183-1.162 0-.642.53-1.163 1.183-1.163h87.892c.654 0 1.184.521 1.184 1.163s-.53 1.162-1.184 1.162M77.084 122.742H50.677c-.654 0-1.185-.52-1.185-1.162 0-.642.53-1.163 1.185-1.163h26.407c.654 0 1.184.521 1.184 1.163s-.53 1.162-1.184 1.162M138.568 136.51H24.178c-.654 0-1.184-.52-1.184-1.162 0-.642.53-1.163 1.184-1.163h114.39c.654 0 1.184.52 1.184 1.163 0 .642-.53 1.162-1.184 1.162"/>
      <path fill="#D4D6D9" d="M91.135 142.915H24.178c-.654 0-1.184-.521-1.184-1.163s.53-1.163 1.184-1.163h66.957c.654 0 1.184.521 1.184 1.163s-.53 1.163-1.184 1.163"/>
      <path fill="#4F577F" d="M44.592 169.591c-1.002 0-2.05.623-2.718 1.63-.669 1.01-.93 2.259-1.115 3.458-.694 4.524-.518 9.193-.048 13.699a87.418 87.418 0 005.737-11.01c.64-1.475 1.251-3.045 1.096-4.609-.144-1.452-1.214-3.03-2.753-3.16a2.42 2.42 0 00-.2-.008m-.596 30.513c-.181 0-.365-.021-.55-.066-1.832-.452-2.192-2.909-2.31-3.717a236.92 236.92 0 01-.843-6.117 88.608 88.608 0 01-6.782 9.184.314.314 0 01-.437.04.3.3 0 01-.04-.429 88.162 88.162 0 007.146-9.768c-.537-4.786-.78-9.788-.034-14.643.195-1.267.475-2.593 1.209-3.7.834-1.26 2.205-2.01 3.49-1.896 1.932.162 3.15 2.032 3.318 3.708.17 1.707-.472 3.36-1.143 4.908a88.137 88.137 0 01-6.199 11.766c.268 2.353.606 4.655.93 6.86.281 1.925.886 2.975 1.845 3.212.994.248 2.01-.507 2.782-1.19a44.378 44.378 0 007.207-8.135.314.314 0 01.372-.113.304.304 0 01.19.334l-.97 5.7c-.037.214-.19 1.28.358 1.443.28.081.623-.127.891-.318.51-.366.99-.764 1.438-1.196.076-.8.88-1.547 1.753-2.043a.315.315 0 01.382.056.3.3 0 01.031.378 13.21 13.21 0 01-1.536 1.853c.011.071.034.14.068.208.251.493.946.565 1.682.641.837.087 1.786.185 2.167 1.003a.302.302 0 01-.153.404.312.312 0 01-.411-.15c-.235-.502-.931-.574-1.669-.65-.829-.086-1.768-.183-2.171-.975l-.005-.011c-.383.346-.787.672-1.21.976-.385.274-.896.569-1.436.407-.698-.206-.987-.981-.792-2.126l.744-4.365a45.035 45.035 0 01-6.515 7.134c-.759.669-1.732 1.393-2.797 1.393"/>
      <path fill="#D4D6D9" d="M136.515 163.19h-24.09c-1.788 0-3.237-1.424-3.237-3.18 0-1.756 1.45-3.179 3.237-3.179h24.09c1.788 0 3.237 1.423 3.237 3.18 0 1.755-1.45 3.179-3.237 3.179"/>
    </g>
  </g>
</svg>
