<?xml version="1.0" standalone="no"?>
<!DOCTYPE svg PUBLIC "-//W3C//DTD SVG 20010904//EN"
 "http://www.w3.org/TR/2001/REC-SVG-20010904/DTD/svg10.dtd">
<svg version="1.0" xmlns="http://www.w3.org/2000/svg"
 width="512.000000pt" height="512.000000pt" viewBox="0 0 512.000000 512.000000"
 preserveAspectRatio="xMidYMid meet">
<metadata>
Created by potrace 1.11, written by Peter Selinger 2001-2013
</metadata>
<g transform="translate(0.000000,512.000000) scale(0.100000,-0.100000)"
fill="#000000" stroke="none">
<path d="M2585 4560 c-3 -5 -4 -14 -1 -19 4 -5 0 -22 -8 -38 -8 -15 -20 -47
-27 -70 -7 -24 -20 -50 -31 -59 -10 -10 -18 -22 -18 -28 0 -7 -23 -34 -51 -61
-28 -28 -55 -59 -60 -70 -15 -31 -33 -61 -48 -79 -8 -9 -11 -19 -8 -22 9 -10
69 14 93 37 16 15 32 20 65 17 41 -3 44 -5 47 -34 3 -32 9 -25 -150 -165 -31
-27 -48 -50 -48 -65 0 -12 -4 -26 -10 -29 -5 -3 -10 -15 -10 -25 0 -10 -5 -20
-11 -22 -22 -7 -59 -120 -59 -180 0 -64 16 -82 51 -60 27 17 53 15 72 -6 24
-26 22 -29 -25 -53 -45 -23 -157 -126 -158 -145 0 -16 -29 -72 -41 -79 -5 -4
-7 -11 -3 -16 3 -5 -1 -21 -10 -34 -9 -13 -16 -31 -16 -39 0 -9 -8 -31 -17
-50 -15 -33 -15 -37 0 -54 19 -21 24 -107 7 -117 -5 -3 -10 -35 -10 -70 0 -35
5 -67 10 -70 6 -3 10 -40 10 -81 0 -67 -4 -82 -40 -153 -22 -44 -44 -82 -50
-86 -6 -4 -20 -27 -32 -52 -20 -42 -20 -47 -5 -72 24 -39 68 -40 108 -2 38 37
79 40 109 9 11 -12 20 -27 20 -34 0 -25 22 -26 48 -2 43 39 79 58 111 58 36 0
51 -22 51 -78 0 -48 -24 -81 -84 -116 -51 -30 -101 -33 -128 -9 -18 16 -21 16
-51 -1 -18 -11 -45 -31 -62 -46 -16 -14 -43 -34 -58 -44 -15 -9 -31 -25 -35
-34 -4 -10 -24 -43 -45 -75 -31 -46 -44 -57 -66 -57 -15 0 -31 -4 -36 -9 -6
-5 -26 -14 -45 -20 -46 -14 -112 -90 -115 -131 -3 -34 18 -51 38 -31 15 15
152 14 194 -1 18 -7 33 -18 33 -25 0 -7 15 -30 33 -50 46 -53 69 -92 63 -108
-2 -7 6 -23 20 -36 13 -12 24 -30 24 -40 0 -9 11 -24 25 -33 29 -19 33 -46 6
-46 -10 0 -42 8 -71 17 -52 17 -79 12 -87 -14 -5 -14 116 -83 145 -83 11 0 24
-4 27 -10 3 -5 18 -10 33 -10 32 0 167 -63 200 -94 13 -11 33 -38 43 -58 18
-34 19 -62 19 -360 -1 -264 -3 -326 -15 -342 -10 -13 -12 -32 -8 -62 4 -31 1
-50 -11 -68 -9 -14 -16 -36 -16 -48 0 -30 -22 -91 -60 -169 -16 -34 -30 -70
-30 -80 0 -9 -7 -22 -15 -29 -8 -7 -15 -19 -15 -26 0 -12 53 -14 305 -14 l306
0 -16 30 c-9 17 -20 30 -25 30 -6 0 -10 6 -10 14 0 8 -15 45 -34 83 -41 85
-62 155 -73 253 -3 25 -10 51 -17 59 -6 8 -14 57 -18 110 -4 53 -10 127 -14
164 -4 44 -2 73 6 82 6 7 11 46 12 87 0 40 6 82 13 93 7 12 15 41 18 65 16
133 33 174 99 236 45 44 134 94 166 94 10 0 23 5 30 12 9 9 54 11 158 10 126
-3 149 -1 165 14 25 22 24 55 -1 87 -11 14 -20 38 -20 55 0 16 -8 36 -19 46
-10 9 -27 35 -37 57 -17 38 -17 43 -2 70 9 15 14 36 12 47 -3 10 2 24 10 31
20 17 20 68 1 101 -20 34 -19 112 2 171 17 46 17 50 0 78 -9 16 -17 36 -17 44
0 19 -27 72 -45 87 -36 30 -59 120 -35 135 6 3 10 32 10 64 0 35 6 65 15 77
19 24 19 74 0 98 -8 11 -15 37 -15 58 0 45 -24 96 -54 118 -33 23 -108 60
-123 60 -8 0 -25 7 -39 16 -13 9 -27 14 -31 11 -3 -4 -14 -2 -24 4 -24 13 -24
51 0 73 18 16 32 19 76 14 59 -6 81 2 98 35 10 18 17 38 16 43 -3 14 28 79 45
94 23 18 20 73 -4 95 -11 10 -20 23 -20 28 0 6 -9 21 -21 33 -17 19 -24 34
-28 65 -2 10 -51 29 -75 29 -31 0 -67 29 -90 75 -16 29 -18 40 -8 53 7 9 16
26 21 37 5 11 19 29 31 40 29 27 60 88 60 120 0 19 -18 46 -58 88 -54 58 -71
84 -86 130 -3 9 -16 21 -28 26 -13 5 -32 18 -42 30 -18 20 -18 22 -3 39 18 20
23 82 8 110 -5 9 -14 35 -21 58 -12 41 -81 124 -104 124 -13 0 -76 116 -76
141 0 30 -41 52 -55 29z m-157 -1725 c12 -11 11 -17 -3 -39 -10 -14 -23 -26
-30 -26 -6 0 -20 -9 -30 -20 -14 -15 -29 -20 -54 -18 -54 5 -52 31 6 84 50 47
79 51 111 19z m-158 -1233 c14 -3 42 -16 62 -29 21 -12 42 -23 47 -23 11 0 51
-75 51 -95 0 -20 -6 -19 -75 16 -71 35 -171 129 -152 141 6 4 19 5 27 2 8 -4
26 -9 40 -12z m625 -42 c32 -33 36 -41 25 -55 -7 -8 -24 -15 -39 -15 -14 0
-51 -9 -81 -20 -30 -11 -60 -20 -67 -20 -18 0 -16 45 2 60 8 7 15 18 15 25 0
20 59 65 84 65 12 0 38 -17 61 -40z"/>
</g>
</svg>
